<?xml version="1.0" encoding="UTF-8" standalone="no"?>
<!DOCTYPE svg PUBLIC "-//W3C//DTD SVG 1.1//EN" "http://www.w3.org/Graphics/SVG/1.1/DTD/svg11.dtd">
<svg width="100%" height="100%" viewBox="0 0 62 48" version="1.1" xmlns="http://www.w3.org/2000/svg" xmlns:xlink="http://www.w3.org/1999/xlink" xml:space="preserve" style="fill-rule:evenodd;clip-rule:evenodd;stroke-linejoin:round;stroke-miterlimit:1.41421;">
    <g id="Layer-1" transform="matrix(1,0,0,1,0,-16)">
        <g id="path5750" transform="matrix(1.09084,0,0,1.09084,-5.18142,-2.95033)">
            <path d="M13.438,17.375C12.702,17.393 11.958,17.477 11.219,17.688C6.486,19.037 3.745,24.017 5.094,28.75C5.139,28.92 5.219,29.064 5.344,29.188C5.323,29.36 5.337,29.528 5.406,29.688C6.782,33.019 9.992,35.126 13.438,35.219C12.702,35.237 11.958,35.352 11.219,35.563C6.486,36.912 3.745,41.861 5.094,46.594C5.14,46.763 5.219,46.939 5.344,47.063C5.323,47.236 5.337,47.402 5.406,47.563C6.712,50.724 9.664,52.783 12.906,53.063L12.938,53.063C13.415,53.102 13.889,53.101 14.375,53.063L31.777,52.859L33,60C33,60.021 33,60.042 33,60.063C33.001,60.75 33.625,61.374 34.313,61.375L59.5,61.375C60.187,61.374 60.812,60.75 60.813,60.063C60.841,54.975 59.224,45.074 53.688,40.188C49.928,36.87 45.186,34.72 41.25,33.906C42.572,33.094 43.639,31.976 44.375,30.656L44.375,30.625C45.49,28.624 45.863,26.213 45.188,23.844C44.049,19.85 40.349,17.276 36.375,17.375L13.813,17.375L13.438,17.375ZM13.594,19.344C13.68,19.344 13.758,19.34 13.844,19.344C16.804,19.411 19.488,21.371 20.344,24.375C21.398,28.072 19.26,31.915 15.563,32.969C12.163,33.938 8.6,32.205 7.25,28.938C7.2,28.811 7.128,28.69 7.031,28.594C7.048,28.457 7.039,28.319 7,28.188C5.946,24.49 8.084,20.679 11.781,19.625C12.388,19.452 12.993,19.352 13.594,19.344ZM13.594,22.656C13.295,22.664 12.988,22.727 12.688,22.813C10.765,23.36 9.64,25.359 10.188,27.281L10.313,27.688C11.015,29.388 12.887,30.286 14.656,29.781C16.579,29.233 17.704,27.235 17.156,25.313C16.694,23.691 15.205,22.615 13.594,22.656ZM22.688,36.406L40.406,36.406C43.811,37.043 48.756,38.789 52,42.188C57.155,47.589 57.52,55.257 58,58.75L35.438,58.75C34.962,54.221 34.324,45.419 28.5,40.188C26.751,38.616 24.69,37.443 22.688,36.406ZM13.594,37.219L13.844,37.219C16.804,37.286 19.488,39.246 20.344,42.25C21.398,45.947 19.26,49.79 15.563,50.844C12.163,51.813 8.6,50.08 7.25,46.813C7.2,46.686 7.128,46.565 7.031,46.469C7.048,46.333 7.039,46.193 7,46.063C5.946,42.365 8.084,38.554 11.781,37.5C12.388,37.327 12.993,37.227 13.594,37.219ZM13.594,40.531C13.295,40.539 12.988,40.602 12.688,40.688C10.765,41.235 9.64,43.234 10.188,45.156L10.313,45.531C11.015,47.232 12.887,48.161 14.656,47.656C16.579,47.108 17.704,45.079 17.156,43.156C16.694,41.534 15.205,40.49 13.594,40.531Z" style="fill:black;fill-rule:nonzero;"/>
        </g>
        <g transform="matrix(1.09084,0,0,1.09084,-3.81787,-2.95033)">
            <path d="M51.527,49.453C51.606,49.46 51.627,49.46 51.705,49.475C51.852,49.502 51.995,49.553 52.127,49.623C52.285,49.708 52.427,49.823 52.544,49.959C52.642,50.073 52.721,50.202 52.78,50.339C52.838,50.477 52.875,50.624 52.889,50.773C52.936,51.287 52.701,51.799 52.28,52.097C52.108,52.219 51.911,52.302 51.705,52.341C51.616,52.357 51.528,52.363 51.437,52.365L37.412,52.365C37.333,52.363 37.312,52.364 37.233,52.354C37.085,52.336 36.939,52.295 36.803,52.232C36.64,52.157 36.491,52.051 36.366,51.922C36.262,51.815 36.174,51.691 36.107,51.557C35.863,51.067 35.919,50.466 36.249,50.029C36.339,49.91 36.448,49.804 36.57,49.718C36.741,49.597 36.938,49.513 37.145,49.475C37.234,49.458 37.322,49.453 37.412,49.45C42.117,49.45 46.824,49.308 51.527,49.453Z" style="fill:black;fill-rule:nonzero;stroke-width:0.92px;stroke:black;"/>
        </g>
        <g transform="matrix(1.09084,0,0,1.09084,-4.90871,-2.95033)">
            <path d="M53.145,54.116C53.224,54.123 53.244,54.123 53.322,54.138C53.468,54.165 53.611,54.215 53.742,54.286C53.9,54.37 54.041,54.484 54.158,54.62C54.255,54.733 54.334,54.861 54.392,54.999C54.45,55.136 54.487,55.282 54.501,55.431C54.548,55.942 54.313,56.453 53.894,56.749C53.723,56.87 53.527,56.953 53.322,56.991C53.233,57.008 53.145,57.013 53.055,57.016L39.148,57.016C39.069,57.014 39.049,57.015 38.97,57.005C38.822,56.987 38.677,56.946 38.541,56.883C38.379,56.808 38.23,56.703 38.106,56.575C38.002,56.468 37.915,56.345 37.849,56.212C37.606,55.724 37.661,55.125 37.99,54.69C38.079,54.571 38.188,54.466 38.309,54.38C38.48,54.259 38.676,54.176 38.881,54.138C38.97,54.121 39.058,54.116 39.148,54.113C43.814,54.113 48.481,53.972 53.145,54.116Z" style="fill:black;fill-rule:nonzero;stroke-width:0.92px;stroke:black;"/>
        </g>
    </g>
</svg>
