<?xml version="1.0" encoding="utf-8"?>
<!DOCTYPE svg PUBLIC "-//W3C//DTD SVG 1.1//EN" "http://www.w3.org/Graphics/SVG/1.1/DTD/svg11.dtd">

<svg version="1.1" id="Layer_1" xmlns="http://www.w3.org/2000/svg" xmlns:xlink="http://www.w3.org/1999/xlink" x="0px" y="0px"
	 width="512px" height="512px" viewBox="0 0 512 512" enable-background="new 0 0 512 512" xml:space="preserve">

<path id="gear2" fill="white" d="M462.238,111.24l-7.815-18.866l-20.23,1.012c-3.873-5.146-8.385-9.644-13.417-13.42l0.038-0.043l1.06-20.318l-18.859-7.822
	L389.385,66.89l-0.008,0.031c-6.229-0.883-12.619-0.933-18.988-0.025L356.76,51.774l-18.867,7.815l1.055,20.32
	c-5.152,3.873-9.627,8.422-13.403,13.46l-0.038-0.021l-20.317-1.045l-7.799,18.853l15.103,13.616l0.038,0.021
	c-0.731,5.835-1.035,12.658-0.133,19.038l-15.208,13.662l7.812,18.87l20.414-1.086c3.868,5.144,8.472,9.613,13.495,13.385
	l0.013,0.025l-1.03,20.312l20.668,7.815L374,201.703v-0.033c4,0.731,10.818,0.935,17.193,0.04l12.729,15.114l18.42-7.813
	l-1.286-20.324c5.144-3.875,9.521-8.424,13.297-13.456l-0.023,0.011l20.287,1.047l7.802-18.864l-15.121-13.624l-0.033-0.019
	c0.877-6.222,0.852-12.58-0.05-18.953L462.238,111.24z M392.912,165.741c-17.359,7.19-37.27-1.053-44.462-18.421
	c-7.196-17.364,1.047-37.272,18.415-44.465c17.371-7.192,37.274,1.053,44.471,18.417
	C418.523,138.643,410.276,158.547,392.912,165.741z"/>
</svg>
