<?xml version="1.0" encoding="utf-8"?>
<!DOCTYPE svg PUBLIC "-//W3C//DTD SVG 1.1//EN" "http://www.w3.org/Graphics/SVG/1.1/DTD/svg11.dtd">

<svg version="1.1" id="Layer_1" xmlns="http://www.w3.org/2000/svg" xmlns:xlink="http://www.w3.org/1999/xlink" x="0px" y="0px"
	 width="512px" height="512px" viewBox="0 0 512 512" enable-background="new 0 0 512 512" xml:space="preserve">
<path id="gear1"  d="M348,327.195v-35.741l-32.436-11.912c-2.825-10.911-6.615-21.215-12.216-30.687l0.325-0.042l15.438-32.153l-25.2-25.269
	l-32.118,15.299l-0.031,0.045c-9.472-5.601-19.758-9.156-30.671-11.978L219.186,162h-35.739l-11.913,32.759
	c-10.913,2.821-21.213,6.774-30.685,12.379l-0.048-0.248l-32.149-15.399l-25.269,25.219l15.299,32.124l0.05,0.039
	c-5.605,9.471-11.159,19.764-13.98,30.675L50,291.454v35.741l34.753,11.913c2.821,10.915,7.774,21.211,13.38,30.685l0.249,0.045
	l-15.147,32.147l25.343,25.274l32.188-15.298l0.065-0.046c9.474,5.597,19.782,10.826,30.695,13.652L183.447,460h35.739
	l11.915-34.432c10.913-2.826,21.209-7.614,30.681-13.215l0.05-0.175l32.151,15.192l25.267-25.326l-15.299-32.182l-0.046-0.061
	c5.601-9.473,8.835-19.776,11.66-30.688L348,327.195z M201.318,368.891c-32.897,0-59.566-26.662-59.566-59.565
	c0-32.896,26.669-59.568,59.566-59.568c32.901,0,59.566,26.672,59.566,59.568C260.884,342.229,234.219,368.891,201.318,368.891z"/>

</svg>
